<?xml version="1.0" encoding="iso-8859-1"?>
<!-- Uploaded to: SVG Repo, www.svgrepo.com, Generator: SVG Repo Mixer Tools -->
<!DOCTYPE svg PUBLIC "-//W3C//DTD SVG 1.1//EN" "http://www.w3.org/Graphics/SVG/1.1/DTD/svg11.dtd">
<svg fill="#000000" height="800px" width="800px" version="1.1" id="Capa_1" xmlns="http://www.w3.org/2000/svg" xmlns:xlink="http://www.w3.org/1999/xlink" 
	 viewBox="0 0 399.421 399.421" xml:space="preserve">
<path d="M390.421,90.522h-25.905c-0.123-0.003-0.249-0.003-0.372,0h-25.901c-4.971,0-9,4.029-9,9s4.029,9,9,9h17.087v19.085
	l-170.319,64.885H95.949l-22.765-31.203h14.013c4.971,0,9-4.029,9-9s-4.029-9-9-9H55.684c-0.144-0.004-0.287-0.004-0.431,0H35.021
	c-4.971,0-9,4.029-9,9s4.029,9,9,9h15.882l22.765,31.203H9c-4.971,0-9,4.029-9,9v98.409c0,4.971,4.029,9,9,9h42.09
	c4.971,0,9-4.029,9-9v-47.32h253.151v47.32c0,4.971,4.029,9,9,9h42.09c4.971,0,9-4.029,9-9v-98.409c0-0.063,0-0.127-0.002-0.191
	v-67.284c0.003-0.139,0.003-0.278,0-0.418v-25.076h17.091c4.971,0,9-4.029,9-9S395.392,90.522,390.421,90.522z M355.33,146.869
	v45.623H235.572L355.33,146.869z M42.09,290.901H18v-38.32h24.09V290.901z M355.332,290.901h-24.09v-38.32h24.09V290.901z
	 M355.332,234.581h-33.09H18v-24.089h73.28c0.068,0.001,0.135,0.001,0.203,0h94.981c0.137,0.003,0.273,0.003,0.41,0h168.458V234.581
	z"/>
</svg>