<?xml version="1.0" standalone="no"?>
<!DOCTYPE svg PUBLIC "-//W3C//DTD SVG 20010904//EN"
 "http://www.w3.org/TR/2001/REC-SVG-20010904/DTD/svg10.dtd">
<svg version="1.0" xmlns="http://www.w3.org/2000/svg"
 width="1280.000000pt" height="1020.000000pt" viewBox="0 0 1280.000000 1020.000000"
 preserveAspectRatio="xMidYMid meet">
<g transform="translate(0.000000,1020.000000) scale(0.100000,-0.100000)"
fill="#000000" stroke="none">
<path d="M8345 10188 c-243 -31 -308 -42 -437 -79 -171 -49 -280 -99 -448
-204 -69 -43 -168 -98 -220 -122 -185 -86 -216 -103 -282 -158 -78 -65 -160
-170 -250 -321 -79 -133 -75 -123 -94 -254 -8 -60 -26 -141 -40 -181 -86 -253
-124 -493 -124 -781 0 -330 30 -461 176 -781 30 -66 69 -137 86 -156 71 -81
99 -189 79 -306 -22 -126 -47 -148 -224 -191 -139 -35 -253 -98 -698 -387
-221 -142 -550 -289 -1349 -598 -212 -82 -406 -159 -432 -170 l-48 -19 -62 26
c-73 30 -83 30 -255 -20 -118 -35 -543 -182 -743 -258 -160 -60 -343 -151
-449 -223 -53 -35 -163 -122 -246 -193 -306 -264 -393 -382 -503 -687 -28 -77
-74 -192 -103 -255 -97 -214 -201 -516 -275 -792 -17 -63 -34 -108 -41 -108
-25 0 -97 125 -147 255 -33 87 -109 190 -173 233 -64 42 -142 59 -202 42 -76
-20 -162 -118 -248 -280 -39 -74 -86 -169 -103 -210 -84 -195 -139 -289 -224
-383 -117 -130 -223 -264 -246 -311 -17 -36 -19 -62 -19 -219 0 -126 4 -190
14 -218 21 -58 95 -175 193 -305 111 -147 122 -168 122 -229 0 -78 17 -123 53
-145 55 -34 95 -24 177 45 24 20 46 32 50 28 4 -4 36 -69 71 -143 116 -246
214 -387 300 -431 22 -11 95 -56 162 -101 152 -101 185 -115 300 -129 241 -30
479 23 688 154 103 63 119 68 249 71 90 2 127 7 171 24 74 29 136 83 149 130
9 35 52 115 133 246 50 81 74 148 87 247 13 95 39 162 68 178 57 30 105 4 460
-256 236 -172 344 -244 462 -303 248 -124 561 -234 744 -259 127 -18 305 17
459 89 115 55 151 38 217 -103 66 -143 178 -265 295 -325 66 -33 278 -109 352
-126 37 -8 149 -20 248 -26 99 -6 191 -13 203 -16 13 -3 57 -36 96 -74 66 -62
157 -120 188 -120 6 0 25 12 40 27 27 25 28 31 28 115 0 104 -10 96 162 138
193 47 226 42 386 -60 97 -61 212 -51 212 20 0 16 -7 54 -15 85 -14 57 -12 84
9 86 29 3 45 -7 101 -61 116 -113 185 -138 235 -86 12 14 37 28 54 32 39 8 73
39 81 73 8 37 -17 125 -65 224 -77 162 -211 245 -481 297 -287 54 -546 86
-774 93 l-70 2 -116 234 -117 233 -40 252 c-23 138 -44 287 -48 332 l-7 81
159 53 c381 126 497 197 994 609 271 224 328 263 605 406 105 54 222 120 260
145 82 56 223 178 442 384 87 81 199 179 250 218 51 38 95 73 98 78 4 6 19 10
35 10 38 0 61 -31 143 -195 77 -154 118 -269 187 -522 133 -492 196 -621 366
-761 107 -87 112 -94 209 -285 82 -161 164 -282 269 -394 45 -48 145 -162 221
-253 76 -91 181 -207 232 -258 51 -52 93 -102 93 -112 0 -9 -7 -37 -15 -60
-24 -68 -19 -129 20 -236 36 -100 44 -168 24 -207 -7 -12 -27 -39 -46 -60 -32
-36 -33 -40 -20 -60 8 -12 31 -28 51 -36 32 -12 46 -12 109 3 40 10 86 26 103
37 32 19 110 99 156 158 l26 34 230 -26 c152 -18 281 -39 383 -64 l154 -37
265 -4 c180 -2 277 0 303 8 35 10 38 13 32 40 -3 16 -1 39 5 50 11 20 17 22
74 15 54 -5 64 -4 80 14 18 20 18 21 -7 63 -48 82 -190 200 -292 242 -22 9
-94 30 -162 46 -146 35 -205 63 -261 124 -122 132 -252 422 -407 906 -124 389
-237 666 -325 796 -18 27 -104 119 -190 204 -226 224 -315 363 -609 950 -178
354 -199 405 -256 608 -71 251 -97 313 -198 472 -95 150 -105 212 -49 315 40
72 77 90 180 88 77 -2 86 0 108 22 40 40 30 103 -35 209 -28 46 -36 70 -36
107 0 86 61 126 258 168 139 29 169 54 245 206 43 86 55 100 116 130 21 11 53
38 72 59 28 32 34 48 34 83 0 52 -6 64 -77 160 -92 125 -123 217 -92 276 7 12
12 35 11 52 -1 43 19 68 82 100 31 16 56 34 56 40 0 7 -16 25 -35 39 -43 33
-46 66 -11 134 19 38 24 63 23 127 0 65 10 116 53 275 74 278 79 299 90 421
16 186 -9 348 -72 473 -28 56 -248 402 -320 503 -79 111 -164 194 -332 321
-78 58 -177 135 -221 171 -93 74 -197 126 -345 171 -163 49 -262 86 -435 165
-196 89 -198 90 -363 115 -73 11 -161 27 -195 35 -70 16 -324 18 -442 3z"/>
</g>
</svg>
